<svg width="32" height="32" viewBox="0 0 32 32" fill="none" xmlns="http://www.w3.org/2000/svg">
<path d="M28.467 14.7993H16.2404V18.4393H24.9204C24.4804 23.5193 20.2537 25.6927 16.2537 25.6927C11.147 25.6927 6.66703 21.666 6.66703 15.9993C6.66703 10.5327 10.9337 6.30602 16.267 6.30602C20.387 6.30602 22.8004 8.93268 22.8004 8.93268L25.3337 6.29268C25.3337 6.29268 22.0804 2.66602 16.1337 2.66602C8.56037 2.66602 2.70703 9.06602 2.70703 15.9993C2.70703 22.7327 8.2137 29.3327 16.3337 29.3327C23.467 29.3327 28.667 24.4393 28.667 17.2127C28.667 15.6793 28.467 14.7993 28.467 14.7993Z" fill="#8C8C8C"/>
</svg>
