<svg width="32" height="32" viewBox="0 0 32 32" fill="none" xmlns="http://www.w3.org/2000/svg">
<path d="M16.0013 2.66602C19.624 2.66602 20.076 2.67935 21.4973 2.74602C22.9173 2.81268 23.884 3.03535 24.7346 3.36602C25.6146 3.70468 26.356 4.16335 27.0973 4.90335C27.7753 5.56988 28.2999 6.37613 28.6346 7.26602C28.964 8.11535 29.188 9.08335 29.2546 10.5033C29.3173 11.9247 29.3346 12.3767 29.3346 15.9993C29.3346 19.622 29.3213 20.074 29.2546 21.4953C29.188 22.9153 28.964 23.882 28.6346 24.7327C28.3009 25.623 27.7761 26.4295 27.0973 27.0953C26.4306 27.7731 25.6244 28.2977 24.7346 28.6327C23.8853 28.962 22.9173 29.186 21.4973 29.2527C20.076 29.3153 19.624 29.3327 16.0013 29.3327C12.3786 29.3327 11.9266 29.3193 10.5053 29.2527C9.0853 29.186 8.11863 28.962 7.26797 28.6327C6.37774 28.2986 5.57134 27.7739 4.9053 27.0953C4.22718 26.4289 3.70254 25.6226 3.36797 24.7327C3.0373 23.8833 2.81464 22.9153 2.74797 21.4953C2.6853 20.074 2.66797 19.622 2.66797 15.9993C2.66797 12.3767 2.6813 11.9247 2.74797 10.5033C2.81464 9.08202 3.0373 8.11668 3.36797 7.26602C3.70162 6.37559 4.22637 5.56911 4.9053 4.90335C5.57153 4.22499 6.37787 3.70032 7.26797 3.36602C8.11863 3.03535 9.08397 2.81268 10.5053 2.74602C11.9266 2.68335 12.3786 2.66602 16.0013 2.66602ZM16.0013 9.33268C14.2332 9.33268 12.5375 10.0351 11.2873 11.2853C10.037 12.5355 9.33464 14.2312 9.33463 15.9993C9.33464 17.7675 10.037 19.4632 11.2873 20.7134C12.5375 21.9636 14.2332 22.666 16.0013 22.666C17.7694 22.666 19.4651 21.9636 20.7153 20.7134C21.9656 19.4632 22.668 17.7675 22.668 15.9993C22.668 14.2312 21.9656 12.5355 20.7153 11.2853C19.4651 10.0351 17.7694 9.33268 16.0013 9.33268ZM24.668 8.99935C24.668 8.55732 24.4924 8.1334 24.1798 7.82084C23.8673 7.50828 23.4433 7.33268 23.0013 7.33268C22.5593 7.33268 22.1353 7.50828 21.8228 7.82084C21.5102 8.1334 21.3346 8.55732 21.3346 8.99935C21.3346 9.44138 21.5102 9.8653 21.8228 10.1779C22.1353 10.4904 22.5593 10.666 23.0013 10.666C23.4433 10.666 23.8673 10.4904 24.1798 10.1779C24.4924 9.8653 24.668 9.44138 24.668 8.99935ZM16.0013 11.9993C17.0622 11.9993 18.0796 12.4208 18.8297 13.1709C19.5799 13.9211 20.0013 14.9385 20.0013 15.9993C20.0013 17.0602 19.5799 18.0776 18.8297 18.8278C18.0796 19.5779 17.0622 19.9993 16.0013 19.9993C14.9404 19.9993 13.923 19.5779 13.1729 18.8278C12.4227 18.0776 12.0013 17.0602 12.0013 15.9993C12.0013 14.9385 12.4227 13.9211 13.1729 13.1709C13.923 12.4208 14.9404 11.9993 16.0013 11.9993Z" fill="#8C8C8C"/>
</svg>
