<svg width="18" height="18" viewBox="0 0 18 18" fill="none" xmlns="http://www.w3.org/2000/svg">
<path d="M4.46328 16.6073C4.1671 16.6073 3.89208 16.5368 3.64527 16.3957C3.10227 16.0784 2.79199 15.4367 2.79199 14.6398V4.6967C2.79199 2.90553 4.25173 1.4458 6.0429 1.4458H12.8479C14.6391 1.4458 16.0988 2.90553 16.0988 4.6967V14.6328C16.0988 15.4296 15.7886 16.0713 15.2456 16.3887C14.7026 16.706 13.9903 16.6707 13.2922 16.2829L9.8509 14.3718C9.64639 14.259 9.24444 14.259 9.03993 14.3718L5.59863 16.2829C5.21783 16.4945 4.82998 16.6073 4.46328 16.6073ZM6.04995 2.50358C4.84408 2.50358 3.85682 3.49084 3.85682 4.6967V14.6328C3.85682 15.0488 3.9767 15.3591 4.18826 15.479C4.39981 15.5989 4.73125 15.5636 5.0909 15.3591L8.5322 13.4481C9.05404 13.1589 9.84384 13.1589 10.3657 13.4481L13.807 15.3591C14.1666 15.5636 14.4981 15.6059 14.7096 15.479C14.9212 15.3521 15.0411 15.0418 15.0411 14.6328V4.6967C15.0411 3.49084 14.0538 2.50358 12.8479 2.50358H6.04995V2.50358Z" fill="#050D13"/>
</svg>
