<svg width="20" height="20" viewBox="0 0 20 20" fill="none" xmlns="http://www.w3.org/2000/svg">
<path d="M10.1909 17.2801C8.75637 17.2801 7.35401 16.8547 6.16121 16.0577C4.9684 15.2607 4.03872 14.1279 3.48974 12.8025C2.94075 11.4771 2.79711 10.0187 3.07698 8.61172C3.35685 7.20471 4.04766 5.91229 5.06206 4.89789C6.07646 3.8835 7.36888 3.19268 8.77589 2.91281C10.1829 2.63294 11.6413 2.77658 12.9667 3.32557C14.292 3.87456 15.4249 4.80423 16.2219 5.99704C17.0189 7.18984 17.4443 8.5922 17.4443 10.0268C17.4443 11.226 17.1541 12.3559 16.6383 13.3528L17.4443 17.2801L13.517 16.4742C12.5209 16.9892 11.3894 17.2801 10.1909 17.2801Z" stroke="#050D13" stroke-width="0.906667" stroke-linecap="round" stroke-linejoin="round"/>
</svg>
