<svg width="17" height="13" viewBox="0 0 17 13" fill="none" xmlns="http://www.w3.org/2000/svg">
<path d="M15.9697 0L17 1.83642C16.0727 2.08128 15.2313 2.57099 14.4758 3.30556C13.7545 4.00514 13.3939 4.84465 13.3939 5.82407C13.3939 6.8035 13.6515 7.4856 14.1667 7.87037C14.7162 8.22017 15.5232 8.39506 16.5879 8.39506V9.70679C16.5879 10.4763 16.399 11.1584 16.0212 11.7531C15.6434 12.3128 14.9394 12.5926 13.9091 12.5926C12.2606 12.5926 11.0758 12.0504 10.3545 10.966C9.63333 9.88169 9.27273 8.6749 9.27273 7.34568C9.27273 5.87654 9.61616 4.63477 10.303 3.62037C10.9899 2.57099 11.8485 1.74897 12.8788 1.15432C13.9434 0.524692 14.9737 0.139918 15.9697 0ZM6.69697 0L7.72727 1.83642C6.8 2.08128 5.95859 2.57099 5.20303 3.30556C4.48182 4.00514 4.12121 4.84465 4.12121 5.82407C4.12121 6.8035 4.37879 7.4856 4.89394 7.87037C5.44343 8.22017 6.25051 8.39506 7.31515 8.39506V9.70679C7.31515 10.4763 7.12626 11.1584 6.74849 11.7531C6.37071 12.3128 5.66667 12.5926 4.63636 12.5926C2.98788 12.5926 1.80303 12.0504 1.08182 10.966C0.360606 9.88169 0 8.6749 0 7.34568C0 5.87654 0.343434 4.63477 1.0303 3.62037C1.71717 2.57099 2.57576 1.74897 3.60606 1.15432C4.67071 0.524692 5.70101 0.139918 6.69697 0Z" fill="#5D16DA"/>
</svg>
