<svg width="32" height="32" viewBox="0 0 32 32" fill="none" xmlns="http://www.w3.org/2000/svg">
<path d="M29.947 8.00065C28.9204 8.46732 27.8137 8.77398 26.667 8.92065C27.8404 8.21398 28.747 7.09398 29.1737 5.74732C28.067 6.41398 26.8404 6.88065 25.547 7.14732C24.4937 6.00065 23.0137 5.33398 21.3337 5.33398C18.2004 5.33398 15.6404 7.89398 15.6404 11.054C15.6404 11.5073 15.6937 11.9473 15.787 12.3607C11.0404 12.1207 6.81371 9.84065 4.00038 6.38732C3.50704 7.22732 3.22704 8.21398 3.22704 9.25398C3.22704 11.2407 4.22704 13.0007 5.77371 14.0007C4.82704 14.0007 3.94704 13.734 3.17371 13.334V13.374C3.17371 16.1473 5.14704 18.4673 7.76038 18.9873C6.92135 19.2169 6.0405 19.2489 5.18704 19.0807C5.54919 20.2173 6.25843 21.2119 7.21507 21.9246C8.17171 22.6373 9.32764 23.0322 10.5204 23.054C8.49855 24.6546 5.99237 25.5197 3.41371 25.5073C2.96038 25.5073 2.50704 25.4806 2.05371 25.4273C4.58704 27.054 7.60038 28.0007 10.827 28.0007C21.3337 28.0007 27.107 19.2807 27.107 11.7207C27.107 11.4673 27.107 11.2273 27.0937 10.974C28.2137 10.174 29.1737 9.16065 29.947 8.00065Z" fill="#8C8C8C"/>
</svg>
